PathFileType	4	(X/Y/Z)	C:\Users\WrightLab\Desktop\Jo\P1_boxCal26.trc
DataRate	CameraRate	NumFrames	NumMarkers	Units	OrigDataRate	OrigDataStartFrame	OrigNumFrames
100.00	100.00	       9	19	mm	100.00	250	       664
Frame#	Time	Headset_Front			Headset_Back			Headset_Left			Headset_Right			Left_Shoulder			Right_Shoulder			Sternum			C7			Left Elbow			Right Elbow			Left Wrist			Right Wrist			Left ASIS			Right ASIS			S2			Left Knee			Right Knee			Left Ankle			Right Ankle			
		X1	Y1	Z1	X2	Y2	Z2	X3	Y3	Z3	X4	Y4	Z4	X5	Y5	Z5	X6	Y6	Z6	X7	Y7	Z7	X8	Y8	Z8	X9	Y9	Z9	X10	Y10	Z10	X11	Y11	Z11	X12	Y12	Z12	X13	Y13	Z13	X14	Y14	Z14	X15	Y15	Z15	X16	Y16	Z16	X17	Y17	Z17	X18	Y18	Z18	X19	Y19	Z19	

250	2.490	-668.59637	1302.96387	584.17700	-824.00171	1505.55530	759.35931	-841.98175	1416.17126	614.74548	-651.44208	1364.15735	717.83807	-1006.16675	1270.54065	658.23761	-675.72906	1233.92224	850.04773				-906.98651	1267.30212	849.49365	-1073.25867	954.03101	592.76129	-663.38647	964.82037	952.44867	-886.55951	875.96466	464.30701	-584.18744	727.99542	934.30182				-706.96533	862.56146	663.40613	-932.88593	878.06018	905.88239	-1045.89246	436.12543	747.63898	-651.95056	459.63843	688.45905	-672.94061	97.11027	529.27155				
251	2.500	-663.39923	1303.72168	577.99506	-818.87451	1505.54834	754.08698	-836.67426	1416.61230	609.15558	-644.84143	1363.23450	711.43445	-1001.11884	1271.10107	652.25043	-670.41016	1233.55457	844.84143	-766.46289	1150.65381	642.41461	-902.93768	1267.78015	843.89160	-1067.82263	954.26953	586.24603	-659.98053	963.71271	944.86761	-880.63159	875.80493	458.02686	-579.40900	727.63214	928.38245				-701.37646	862.80988	656.74634	-926.13965	876.31995	897.40240	-1040.91064	435.72427	736.20471	-647.21893	460.60703	682.85205	-1108.82898	144.99904	953.58014				
252	2.510	-658.51599	1303.93359	572.53119	-813.72852	1506.05029	748.50830	-831.40991	1416.83862	603.67474	-640.68701	1363.58594	705.76727	-995.78864	1271.65063	645.90375	-665.98260	1232.90149	838.46350	-760.61499	1150.75916	635.27411	-897.98981	1268.18823	837.91968	-1062.78015	955.14410	579.01709	-653.99310	964.34656	939.22656	-875.44806	876.77026	451.63809	-574.98120	727.23901	921.66852				-696.02075	864.06293	649.30420	-923.16394	877.50916	891.87512	-1035.28406	435.31122	724.34210	-641.17639	462.22668	676.17999	-1107.18530	150.57913	947.59045				
253	2.520	-653.13348	1304.19495	567.42065	-808.28601	1506.71191	742.85767	-825.84662	1417.82422	597.91589	-635.39948	1364.78577	702.25055	-990.52039	1273.19507	639.37604	-661.79236	1233.95361	834.02679				-893.90082	1269.18396	832.12244	-1057.17590	956.71576	572.32629	-649.20581	964.07263	933.18585	-870.03156	877.61737	444.94894	-570.58923	727.47266	915.32263				-689.74310	864.90869	643.58795	-919.44080	878.59113	884.15533	-1029.94751	433.68796	713.15833	-636.14905	464.21063	669.49042	-670.86475	95.23524	526.83484				
254	2.530	-647.80737	1305.14856	561.88757	-802.95349	1507.56226	737.08606	-820.41937	1418.86292	592.19226	-630.11230	1364.90674	695.32458	-985.13336	1274.33337	633.17383	-657.11871	1235.28564	829.75177				-889.18890	1270.14551	826.06439	-1051.17175	957.04016	565.52283	-645.80927	964.98474	926.17432	-864.20673	878.21143	438.65570	-566.33386	727.87036	908.55524				-683.66931	867.12189	637.66357	-914.01544	878.04236	877.13837	-1024.21326	432.76810	700.36017	-630.49866	467.08801	664.85785	-670.91852	93.05045	528.21008				
255	2.540	-642.49957	1306.00781	557.46301	-798.02539	1508.62427	731.42816	-815.39343	1419.71863	586.55353	-625.21002	1365.90637	690.99805	-980.36682	1275.77686	626.77747	-653.21277	1236.45569	824.62006	-745.51892	1155.06714	619.44629	-885.05042	1271.55530	820.13086	-1045.96167	958.77618	557.87854	-641.76978	964.97986	919.46039	-858.98822	879.11816	432.34824	-562.34399	729.08069	901.91833				-678.03076	869.36011	632.60083	-910.52869	879.16492	870.68640	-1017.70801	432.29028	686.60608	-625.35468	469.54248	659.95233	-1099.37024	167.03517	922.83795				
256	2.550	-637.11932	1307.06274	552.23535	-793.22388	1509.63232	725.83252	-810.16638	1420.94971	580.57764	-620.77826	1367.77710	686.40588	-974.88702	1277.58826	620.20966	-648.55560	1237.43665	819.43213	-739.99707	1156.38367	613.85291	-881.07764	1272.64807	814.20728	-1040.96497	961.69312	550.69818	-636.95270	967.00946	915.15271	-853.15320	880.00092	426.27460	-557.45148	731.08496	894.92944				-671.77277	871.96710	627.08807	-906.80475	879.71155	864.67230	-1012.05408	431.95050	672.03064	-619.85199	472.03757	656.48059	-1096.27502	171.67090	913.78455				
257	2.560	-632.47308	1307.96143	546.13281	-788.95795	1510.76147	720.15961	-805.38708	1421.86279	575.00702	-615.63873	1368.73047	680.06183	-969.72821	1279.37744	613.63806	-644.58795	1239.29089	814.24335	-733.96826	1158.06982	608.00513	-876.64655	1273.85889	808.12567	-1034.83020	963.39813	544.24670	-633.69897	968.62183	908.29059	-847.84351	881.12360	420.32828	-553.95856	732.69653	889.04071				-666.37372	873.45728	622.12097	-903.40582	881.82959	858.08398	-1006.08972	431.23804	656.89099	-615.13947	473.24567	652.20154	-670.74768	92.46260	528.36212				
258	2.570	-627.64532	1309.25549	539.89392	-784.64923	1511.60242	714.74548	-800.46783	1423.00684	569.23938	-611.47510	1368.44604	673.71460	-964.62714	1281.04077	607.08264	-640.32416	1240.07397	808.46661	-728.59839	1159.48169	604.61157	-871.88580	1274.11865	801.43872	-1029.51013	964.99310	536.87158	-629.53772	970.63013	903.51929	-842.38538	882.34326	414.76822	-549.58270	734.44830	881.89709				-658.31311	875.41333	616.38580	-900.00934	883.01715	853.22809	-1002.28107	432.35437	640.14355	-609.82404	474.40878	650.11450	-1088.87244	184.03706	892.09558				
